{"asset":{"version":"2.0","generator":"Babylon2Gltf2017","copyright":"2017 (c) BabylonJS"},"scene":0,"scenes":[{"nodes":[0]}],"nodes":[{"mesh":0,"translation":[0.0,0.0,0.0],"rotation":[0.0,0.0,0.0,-1.0],"scale":[1.0,1.0,1.0],"name":"mg3064"}],"meshes":[{"primitives":[{"attributes":{"POSITION":1,"NORMAL":2},"indices":0,"mode":4,"material":0},{"attributes":{"POSITION":4,"NORMAL":5},"indices":3,"mode":4,"material":1},{"attributes":{"POSITION":7,"NORMAL":8},"indices":6,"mode":4,"material":2}],"name":"mg3064"}],"accessors":[{"bufferView":0,"componentType":5125,"count":13143,"type":"SCALAR","name":"accessorIndices"},{"bufferView":1,"componentType":5126,"count":13143,"max":[107.375252,43.2841,50.1753235],"min":[-107.375252,30.9222527,-27.2042274],"type":"VEC3","name":"accessorPositions"},{"bufferView":1,"byteOffset":157716,"componentType":5126,"count":13143,"type":"VEC3","name":"accessorNormals"},{"bufferView":0,"byteOffset":52572,"componentType":5125,"count":77775,"type":"SCALAR","name":"accessorIndices"},{"bufferView":1,"byteOffset":315432,"componentType":5126,"count":77775,"max":[132.037491,102.290771,51.16864],"min":[-132.037491,0.87851,-75.53393],"type":"VEC3","name":"accessorPositions"},{"bufferView":1,"byteOffset":1248732,"componentType":5126,"count":77775,"type":"VEC3","name":"accessorNormals"},{"bufferView":0,"byteOffset":363672,"componentType":5125,"count":3714,"type":"SCALAR","name":"accessorIndices"},{"bufferView":1,"byteOffset":2182032,"componentType":5126,"count":3714,"max":[110.916328,87.03054,8.070611],"min":[-110.916328,43.4930878,-38.2873764],"type":"VEC3","name":"accessorPositions"},{"bufferView":1,"byteOffset":2226600,"componentType":5126,"count":3714,"type":"VEC3","name":"accessorNormals"}],"bufferViews":[{"buffer":0,"byteLength":378528,"name":"bufferViewScalar"},{"buffer":0,"byteOffset":378528,"byteLength":2271168,"byteStride":12,"name":"bufferViewFloatVec3"}],"buffers":[{"uri":"oak.bin","byteLength":2649696}],"materials":[{"pbrMetallicRoughness":{"baseColorFactor":[0.818061948,0.8080741,0.720814645,1.0],"metallicFactor":0.245234326,"roughnessFactor":0.7},"emissiveFactor":[0.0,0.0,0.0],"alphaMode":"OPAQUE","name":"blinn2SG"},{"pbrMetallicRoughness":{"baseColorFactor":[0.6238211,0.514341831,0.495484,1.0],"metallicFactor":0.942894,"roughnessFactor":0.7},"emissiveFactor":[0.0,0.0,0.0],"alphaMode":"OPAQUE","name":"blinn1SG"},{"pbrMetallicRoughness":{"baseColorFactor":[0.684074461,0.67367214,0.602351367,1.0],"metallicFactor":0.2969062,"roughnessFactor":0.7},"emissiveFactor":[0.0,0.0,0.0],"alphaMode":"OPAQUE","name":"Equadrato_HQ_blinn2SG"}]}