{"asset":{"version":"2.0","generator":"Babylon2Gltf2017","copyright":"2017 (c) BabylonJS"},"scene":0,"scenes":[{"nodes":[0,1,2,3]}],"nodes":[{"mesh":0,"translation":[-4133.8584,1212.59814,984.251953],"rotation":[0.0,0.0,0.0,-1.0],"scale":[1.0,1.0,1.0],"name":"Group_001"},{"mesh":1,"translation":[-4133.8584,-1437.00793,984.251953],"rotation":[0.0,0.0,0.0,-1.0],"scale":[1.0,1.0,1.0],"name":"Group_002"},{"mesh":2,"translation":[-3889.76367,-964.567,826.7715],"rotation":[0.0,0.0,0.0,-1.0],"scale":[1.0,1.01425409,1.0],"name":"Group_003"},{"mesh":3,"translation":[-3909.44873,-964.567,787.4004],"rotation":[0.0,0.0,0.0,-1.0],"scale":[1.0,1.0,1.0],"name":"Group_004"}],"meshes":[{"primitives":[{"attributes":{"POSITION":1,"NORMAL":2},"indices":0,"mode":4,"material":0}],"name":"Group_001"},{"primitives":[{"attributes":{"POSITION":4,"NORMAL":5},"indices":3,"mode":4,"material":1}],"name":"Group_002"},{"primitives":[{"attributes":{"POSITION":7,"NORMAL":8},"indices":6,"mode":4,"material":2}],"name":"Group_003"},{"primitives":[{"attributes":{"POSITION":10,"NORMAL":11,"TEXCOORD_0":12,"TEXCOORD_1":13},"indices":9,"mode":4,"material":2}],"name":"Group_004"}],"accessors":[{"bufferView":0,"componentType":5123,"count":30,"type":"SCALAR","name":"accessorIndices"},{"bufferView":1,"componentType":5126,"count":30,"max":[8267.717,224.409424,0.0],"min":[0.0,0.0,-1968.50391],"type":"VEC3","name":"accessorPositions"},{"bufferView":1,"byteOffset":360,"componentType":5126,"count":30,"type":"VEC3","name":"accessorNormals"},{"bufferView":0,"byteOffset":60,"componentType":5123,"count":96,"type":"SCALAR","name":"accessorIndices"},{"bufferView":1,"byteOffset":720,"componentType":5126,"count":96,"max":[8267.717,2874.01587,0.0],"min":[0.0,0.0,-1968.50391],"type":"VEC3","name":"accessorPositions"},{"bufferView":1,"byteOffset":1872,"componentType":5126,"count":96,"type":"VEC3","name":"accessorNormals"},{"bufferView":0,"byteOffset":252,"componentType":5123,"count":144,"type":"SCALAR","name":"accessorIndices"},{"bufferView":1,"byteOffset":3024,"componentType":5126,"count":144,"max":[7791.33838,2138.96,0.0],"min":[-11.8110352,0.0,-39.3700562],"type":"VEC3","name":"accessorPositions"},{"bufferView":1,"byteOffset":4752,"componentType":5126,"count":144,"type":"VEC3","name":"accessorNormals"},{"bufferView":0,"byteOffset":540,"componentType":5123,"count":144,"type":"SCALAR","name":"accessorIndices"},{"bufferView":1,"byteOffset":6480,"componentType":5126,"count":144,"max":[7818.89746,2177.16528,0.0],"min":[0.0,0.0,-1771.65356],"type":"VEC3","name":"accessorPositions"},{"bufferView":1,"byteOffset":8208,"componentType":5126,"count":144,"type":"VEC3","name":"accessorNormals"},{"bufferView":2,"componentType":5126,"count":144,"type":"VEC2","name":"accessorUVs"},{"bufferView":2,"byteOffset":1152,"componentType":5126,"count":144,"type":"VEC2","name":"accessorUV2s"}],"bufferViews":[{"buffer":0,"byteLength":828,"name":"bufferViewScalar"},{"buffer":0,"byteOffset":828,"byteLength":9936,"byteStride":12,"name":"bufferViewFloatVec3"},{"buffer":0,"byteOffset":10764,"byteLength":2304,"byteStride":8,"name":"bufferViewFloatVec2"}],"buffers":[{"uri":"ariannasoldati.bin","byteLength":13068}],"materials":[{"pbrMetallicRoughness":{"baseColorFactor":[1.0,1.0,1.0,1.0],"baseColorTexture":{"index":0},"metallicFactor":0.0,"roughnessFactor":0.9},"emissiveFactor":[0.0,0.0,0.0],"alphaMode":"OPAQUE","name":"Base-ALPI Makassar Ebony"},{"pbrMetallicRoughness":{"baseColorFactor":[1.0,1.0,1.0,1.0],"baseColorTexture":{"index":1},"metallicFactor":0.0,"roughnessFactor":0.9},"emissiveFactor":[0.0,0.0,0.0],"alphaMode":"OPAQUE","name":"Base-ALPI Makassar Ebony 2"},{"pbrMetallicRoughness":{"baseColorFactor":[1.0,1.0,1.0,1.0],"baseColorTexture":{"index":2},"metallicFactor":0.0,"roughnessFactor":0.9},"emissiveFactor":[0.0,0.0,0.0],"alphaMode":"OPAQUE","name":"ALPI - EBF 2C6500FN2 30 2"}],"textures":[{"sampler":0,"source":0,"name":"Base-ALPI Makassar Ebony_baseColor.jpg"},{"sampler":1,"source":1,"name":"Base-ALPI Makassar Ebony 2_baseColor.jpg"},{"sampler":2,"source":2,"name":"ALPI - EBF 2C6500FN2 30 2_baseColor.jpg"}],"images":[{"uri":"Base-ALPI Makassar Ebony_baseColor.jpg"},{"uri":"Base-ALPI Makassar Ebony 2_baseColor.jpg"},{"uri":"ALPI - EBF 2C6500FN2 30 2_baseColor.jpg"}],"samplers":[{"magFilter":9729,"minFilter":9987,"wrapS":10497,"wrapT":10497},{"magFilter":9729,"minFilter":9987,"wrapS":10497,"wrapT":10497},{"magFilter":9729,"minFilter":9987,"wrapS":10497,"wrapT":10497}]}