{"asset":{"version":"2.0","generator":"Babylon2Gltf2017","copyright":"2017 (c) BabylonJS"},"scene":0,"scenes":[{"nodes":[0]}],"nodes":[{"mesh":0,"translation":[0.0,0.0,0.0],"rotation":[0.707106769,0.0,-6.181724E-08,-0.707106769],"scale":[1.0,1.0,1.0],"name":"david 120"}],"meshes":[{"primitives":[{"attributes":{"POSITION":1,"NORMAL":2},"indices":0,"mode":4,"material":0},{"attributes":{"POSITION":4,"NORMAL":5},"indices":3,"mode":4,"material":1},{"attributes":{"POSITION":7,"NORMAL":8},"indices":6,"mode":4,"material":2}],"name":"david 120"}],"accessors":[{"bufferView":0,"componentType":5125,"count":62259,"type":"SCALAR","name":"accessorIndices"},{"bufferView":1,"componentType":5126,"count":62259,"max":[68.15552,101.470207,2.49430156],"min":[-68.11598,-98.52284,-34.44523],"type":"VEC3","name":"accessorPositions"},{"bufferView":1,"byteOffset":747108,"componentType":5126,"count":62259,"type":"VEC3","name":"accessorNormals"},{"bufferView":0,"byteOffset":249036,"componentType":5125,"count":59205,"type":"SCALAR","name":"accessorIndices"},{"bufferView":1,"byteOffset":1494216,"componentType":5126,"count":59205,"max":[63.4331245,105.8036,59.3457642],"min":[-65.00253,-105.803604,-59.34576],"type":"VEC3","name":"accessorPositions"},{"bufferView":1,"byteOffset":2204676,"componentType":5126,"count":59205,"type":"VEC3","name":"accessorNormals"},{"bufferView":0,"byteOffset":485856,"componentType":5125,"count":57981,"type":"SCALAR","name":"accessorIndices"},{"bufferView":1,"byteOffset":2915136,"componentType":5126,"count":57981,"max":[68.4402161,101.863274,5.638227],"min":[-68.4402161,-97.78423,-34.22714],"type":"VEC3","name":"accessorPositions"},{"bufferView":1,"byteOffset":3610908,"componentType":5126,"count":57981,"type":"VEC3","name":"accessorNormals"}],"bufferViews":[{"buffer":0,"byteLength":717780,"name":"bufferViewScalar"},{"buffer":0,"byteOffset":717780,"byteLength":4306680,"byteStride":12,"name":"bufferViewFloatVec3"}],"buffers":[{"uri":"barel2.bin","byteLength":5024460}],"materials":[{"pbrMetallicRoughness":{"baseColorFactor":[0.6125001,0.6125001,0.6125001,1.0],"metallicFactor":0.0,"roughnessFactor":0.9},"emissiveFactor":[0.0,0.0,0.0],"alphaMode":"OPAQUE","name":"default"},{"pbrMetallicRoughness":{"baseColorFactor":[1.0,1.0,1.0,1.0],"metallicFactor":0.7083332,"roughnessFactor":0.5},"emissiveFactor":[0.0,0.0,0.0],"alphaMode":"OPAQUE","name":"Material #25"},{"pbrMetallicRoughness":{"baseColorFactor":[0.28594774,0.28594774,0.28594774,1.0],"metallicFactor":0.0,"roughnessFactor":0.9},"emissiveFactor":[0.0,0.0,0.0],"alphaMode":"OPAQUE","name":"Material #37"}]}