{"asset":{"version":"2.0","generator":"Babylon2Gltf2017","copyright":"2017 (c) BabylonJS"},"scene":0,"scenes":[{"nodes":[0,1,2,3,4,5,6,7,8,9]}],"nodes":[{"mesh":0,"translation":[-22.806591,-5.231909,4.55635929],"rotation":[0.0,0.0,0.0,-1.0],"scale":[1.0,1.0,1.0],"name":"Obj_000010"},{"mesh":1,"translation":[-22.806591,-5.231909,4.55635929],"rotation":[0.0,0.0,0.0,-1.0],"scale":[1.0,1.0,1.0],"name":"Obj_000009"},{"mesh":2,"translation":[-22.806591,-5.231909,4.55635929],"rotation":[0.0,0.0,0.0,-1.0],"scale":[1.0,1.0,1.0],"name":"Obj_000008"},{"mesh":3,"translation":[-22.806591,-5.231909,4.55635929],"rotation":[0.0,0.0,0.0,-1.0],"scale":[1.0,1.0,1.0],"name":"Obj_000007"},{"mesh":4,"translation":[-22.806591,-5.231909,4.55635929],"rotation":[0.0,0.0,0.0,-1.0],"scale":[1.0,1.0,1.0],"name":"Obj_000006"},{"mesh":5,"translation":[-22.806591,-5.231909,4.55635929],"rotation":[0.0,0.0,0.0,-1.0],"scale":[1.0,1.0,1.0],"name":"Obj_000005"},{"mesh":6,"translation":[-22.806591,-5.231909,4.55635929],"rotation":[0.0,0.0,0.0,-1.0],"scale":[1.0,1.0,1.0],"name":"Obj_000004"},{"mesh":7,"translation":[-22.806591,-5.231909,4.55635929],"rotation":[0.0,0.0,0.0,-1.0],"scale":[1.0,1.0,1.0],"name":"Obj_000003"},{"mesh":8,"translation":[-22.806591,-5.231909,4.55635929],"rotation":[0.0,0.0,0.0,-1.0],"scale":[1.0,1.0,1.0],"name":"Obj_000002"},{"mesh":9,"translation":[-22.806591,-5.231909,4.55635929],"rotation":[0.0,0.0,0.0,-1.0],"scale":[1.0,1.0,1.0],"name":"Obj_000001"}],"meshes":[{"primitives":[{"attributes":{"POSITION":1,"NORMAL":2,"TEXCOORD_0":3},"indices":0,"mode":4,"material":0}],"name":"Obj_000010"},{"primitives":[{"attributes":{"POSITION":5,"NORMAL":6,"TEXCOORD_0":7},"indices":4,"mode":4,"material":1}],"name":"Obj_000009"},{"primitives":[{"attributes":{"POSITION":9,"NORMAL":10,"TEXCOORD_0":11},"indices":8,"mode":4,"material":2}],"name":"Obj_000008"},{"primitives":[{"attributes":{"POSITION":13,"NORMAL":14,"TEXCOORD_0":15},"indices":12,"mode":4,"material":3}],"name":"Obj_000007"},{"primitives":[{"attributes":{"POSITION":17,"NORMAL":18,"TEXCOORD_0":19},"indices":16,"mode":4,"material":4}],"name":"Obj_000006"},{"primitives":[{"attributes":{"POSITION":21,"NORMAL":22,"TEXCOORD_0":23},"indices":20,"mode":4,"material":5}],"name":"Obj_000005"},{"primitives":[{"attributes":{"POSITION":25,"NORMAL":26,"TEXCOORD_0":27},"indices":24,"mode":4,"material":6}],"name":"Obj_000004"},{"primitives":[{"attributes":{"POSITION":29,"NORMAL":30,"TEXCOORD_0":31},"indices":28,"mode":4,"material":7}],"name":"Obj_000003"},{"primitives":[{"attributes":{"POSITION":33,"NORMAL":34,"TEXCOORD_0":35},"indices":32,"mode":4,"material":8}],"name":"Obj_000002"},{"primitives":[{"attributes":{"POSITION":37,"NORMAL":38,"TEXCOORD_0":39},"indices":36,"mode":4,"material":9}],"name":"Obj_000001"}],"accessors":[{"bufferView":0,"componentType":5123,"count":762,"type":"SCALAR","name":"accessorIndices"},{"bufferView":1,"componentType":5126,"count":762,"max":[41.2055321,-43.5489578,14.8148794],"min":[37.94628,-44.0911942,11.5686865],"type":"VEC3","name":"accessorPositions"},{"bufferView":1,"byteOffset":9144,"componentType":5126,"count":762,"type":"VEC3","name":"accessorNormals"},{"bufferView":2,"componentType":5126,"count":762,"type":"VEC2","name":"accessorUVs"},{"bufferView":0,"byteOffset":1524,"componentType":5123,"count":180,"type":"SCALAR","name":"accessorIndices"},{"bufferView":1,"byteOffset":18288,"componentType":5126,"count":180,"max":[41.31726,0.9993901,14.956542],"min":[36.252037,-43.6676331,11.4406195],"type":"VEC3","name":"accessorPositions"},{"bufferView":1,"byteOffset":20448,"componentType":5126,"count":180,"type":"VEC3","name":"accessorNormals"},{"bufferView":2,"byteOffset":6096,"componentType":5126,"count":180,"type":"VEC2","name":"accessorUVs"},{"bufferView":0,"byteOffset":1884,"componentType":5123,"count":756,"type":"SCALAR","name":"accessorIndices"},{"bufferView":1,"byteOffset":22608,"componentType":5126,"count":756,"max":[41.21553,-43.5486,-20.6479721],"min":[37.95628,-44.0908356,-23.894165],"type":"VEC3","name":"accessorPositions"},{"bufferView":1,"byteOffset":31680,"componentType":5126,"count":756,"type":"VEC3","name":"accessorNormals"},{"bufferView":2,"byteOffset":7536,"componentType":5126,"count":756,"type":"VEC2","name":"accessorUVs"},{"bufferView":0,"byteOffset":3396,"componentType":5123,"count":180,"type":"SCALAR","name":"accessorIndices"},{"bufferView":1,"byteOffset":40752,"componentType":5126,"count":180,"max":[41.32726,0.999742031,-20.5199051],"min":[36.26204,-43.6672821,-24.0358276],"type":"VEC3","name":"accessorPositions"},{"bufferView":1,"byteOffset":42912,"componentType":5126,"count":180,"type":"VEC3","name":"accessorNormals"},{"bufferView":2,"byteOffset":13584,"componentType":5126,"count":180,"type":"VEC2","name":"accessorUVs"},{"bufferView":0,"byteOffset":3756,"componentType":5123,"count":2304,"type":"SCALAR","name":"accessorIndices"},{"bufferView":1,"byteOffset":45072,"componentType":5126,"count":2304,"max":[39.7318153,4.94312143,16.0431213],"min":[-0.4679737,-0.495004177,-25.155838],"type":"VEC3","name":"accessorPositions"},{"bufferView":1,"byteOffset":72720,"componentType":5126,"count":2304,"type":"VEC3","name":"accessorNormals"},{"bufferView":2,"byteOffset":15024,"componentType":5126,"count":2304,"type":"VEC2","name":"accessorUVs"},{"bufferView":0,"byteOffset":8364,"componentType":5123,"count":16620,"type":"SCALAR","name":"accessorIndices"},{"bufferView":1,"byteOffset":100368,"componentType":5126,"count":16620,"max":[46.0811577,54.5550156,14.9596472],"min":[35.7757034,3.69566059,-24.0403519],"type":"VEC3","name":"accessorPositions"},{"bufferView":1,"byteOffset":299808,"componentType":5126,"count":16620,"type":"VEC3","name":"accessorNormals"},{"bufferView":2,"byteOffset":33456,"componentType":5126,"count":16620,"type":"VEC2","name":"accessorUVs"},{"bufferView":0,"byteOffset":41604,"componentType":5123,"count":756,"type":"SCALAR","name":"accessorIndices"},{"bufferView":1,"byteOffset":499248,"componentType":5126,"count":756,"max":[3.10860825,-43.57171,-21.6237183],"min":[-0.1375885,-44.0000229,-24.8699112],"type":"VEC3","name":"accessorPositions"},{"bufferView":1,"byteOffset":508320,"componentType":5126,"count":756,"type":"VEC3","name":"accessorNormals"},{"bufferView":2,"byteOffset":166416,"componentType":5126,"count":756,"type":"VEC2","name":"accessorUVs"},{"bufferView":0,"byteOffset":43116,"componentType":5123,"count":180,"type":"SCALAR","name":"accessorIndices"},{"bufferView":1,"byteOffset":517392,"componentType":5126,"count":180,"max":[3.235876,1.00035286,-21.4956512],"min":[-0.264520645,-43.57235,-25.01157],"type":"VEC3","name":"accessorPositions"},{"bufferView":1,"byteOffset":519552,"componentType":5126,"count":180,"type":"VEC3","name":"accessorNormals"},{"bufferView":2,"byteOffset":172464,"componentType":5126,"count":180,"type":"VEC2","name":"accessorUVs"},{"bufferView":0,"byteOffset":43476,"componentType":5123,"count":756,"type":"SCALAR","name":"accessorIndices"},{"bufferView":1,"byteOffset":521712,"componentType":5126,"count":756,"max":[3.10860825,-43.57171,15.7892065],"min":[-0.1375885,-44.0000229,12.5430174],"type":"VEC3","name":"accessorPositions"},{"bufferView":1,"byteOffset":530784,"componentType":5126,"count":756,"type":"VEC3","name":"accessorNormals"},{"bufferView":2,"byteOffset":173904,"componentType":5126,"count":756,"type":"VEC2","name":"accessorUVs"},{"bufferView":0,"byteOffset":44988,"componentType":5123,"count":180,"type":"SCALAR","name":"accessorIndices"},{"bufferView":1,"byteOffset":539856,"componentType":5126,"count":180,"max":[3.235876,1.00035286,15.9308691],"min":[-0.264520645,-43.57235,12.4149466],"type":"VEC3","name":"accessorPositions"},{"bufferView":1,"byteOffset":542016,"componentType":5126,"count":180,"type":"VEC3","name":"accessorNormals"},{"bufferView":2,"byteOffset":179952,"componentType":5126,"count":180,"type":"VEC2","name":"accessorUVs"}],"bufferViews":[{"buffer":0,"byteLength":45348,"name":"bufferViewScalar"},{"buffer":0,"byteOffset":45348,"byteLength":544176,"byteStride":12,"name":"bufferViewFloatVec3"},{"buffer":0,"byteOffset":589524,"byteLength":181392,"byteStride":8,"name":"bufferViewFloatVec2"}],"buffers":[{"uri":"riflessi.bin","byteLength":770916}],"materials":[{"pbrMetallicRoughness":{"baseColorFactor":[1.0,1.0,1.0,1.0],"metallicFactor":0.0,"roughnessFactor":0.99},"emissiveFactor":[0.0,0.0,0.0],"alphaMode":"OPAQUE","doubleSided":true,"name":"mat9"},{"pbrMetallicRoughness":{"baseColorFactor":[1.0,1.0,1.0,1.0],"metallicFactor":0.0,"roughnessFactor":0.99},"emissiveFactor":[0.0,0.0,0.0],"alphaMode":"OPAQUE","doubleSided":true,"name":"mat8"},{"pbrMetallicRoughness":{"baseColorFactor":[1.0,1.0,1.0,1.0],"metallicFactor":0.0,"roughnessFactor":0.99},"emissiveFactor":[0.0,0.0,0.0],"alphaMode":"OPAQUE","doubleSided":true,"name":"mat7"},{"pbrMetallicRoughness":{"baseColorFactor":[1.0,1.0,1.0,1.0],"metallicFactor":0.0,"roughnessFactor":0.99},"emissiveFactor":[0.0,0.0,0.0],"alphaMode":"OPAQUE","doubleSided":true,"name":"mat6"},{"pbrMetallicRoughness":{"baseColorFactor":[1.0,1.0,1.0,1.0],"metallicFactor":0.0,"roughnessFactor":0.99},"emissiveFactor":[0.0,0.0,0.0],"alphaMode":"OPAQUE","doubleSided":true,"name":"mat5"},{"pbrMetallicRoughness":{"baseColorFactor":[1.0,1.0,1.0,1.0],"metallicFactor":0.0,"roughnessFactor":0.99},"emissiveFactor":[0.0,0.0,0.0],"alphaMode":"OPAQUE","doubleSided":true,"name":"mat4"},{"pbrMetallicRoughness":{"baseColorFactor":[1.0,1.0,1.0,1.0],"metallicFactor":0.0,"roughnessFactor":0.99},"emissiveFactor":[0.0,0.0,0.0],"alphaMode":"OPAQUE","doubleSided":true,"name":"mat3"},{"pbrMetallicRoughness":{"baseColorFactor":[1.0,1.0,1.0,1.0],"metallicFactor":0.0,"roughnessFactor":0.99},"emissiveFactor":[0.0,0.0,0.0],"alphaMode":"OPAQUE","doubleSided":true,"name":"mat2"},{"pbrMetallicRoughness":{"baseColorFactor":[1.0,1.0,1.0,1.0],"metallicFactor":0.0,"roughnessFactor":0.99},"emissiveFactor":[0.0,0.0,0.0],"alphaMode":"OPAQUE","doubleSided":true,"name":"mat1"},{"pbrMetallicRoughness":{"baseColorFactor":[1.0,1.0,1.0,1.0],"metallicFactor":0.0,"roughnessFactor":0.99},"emissiveFactor":[0.0,0.0,0.0],"alphaMode":"OPAQUE","doubleSided":true,"name":"mat0"}]}